<svg width="980" height="240" viewBox="0 0 980 240" fill="none" xmlns="http://www.w3.org/2000/svg">
  <defs>
    <linearGradient id="mark" x1="38" y1="44" x2="184" y2="184" gradientUnits="userSpaceOnUse">
      <stop stop-color="#7DF9FF"/>
      <stop offset="0.5" stop-color="#2F6BFF"/>
      <stop offset="1" stop-color="#B46DFF"/>
    </linearGradient>
    <linearGradient id="word" x1="226" y1="76" x2="770" y2="150" gradientUnits="userSpaceOnUse">
      <stop stop-color="#FFFFFF"/>
      <stop offset="0.48" stop-color="#7DF9FF"/>
      <stop offset="1" stop-color="#D7DEFF"/>
    </linearGradient>
  </defs>
  <rect width="980" height="240" rx="38" fill="#030817"/>
  <rect x="38" y="48" width="144" height="144" rx="36" fill="url(#mark)"/>
  <path d="M70 92C88 86 104 88 116 102V164C103 151 88 148 70 154V92Z" fill="white" fill-opacity="0.93"/>
  <path d="M116 102C128 88 146 86 164 92V154C146 148 129 151 116 164V102Z" fill="white" fill-opacity="0.72"/>
  <path d="M72 168C90 160 105 164 116 176C128 164 146 160 164 168" stroke="white" stroke-width="7" stroke-linecap="round"/>
  <path d="M86 142L104 124L120 137L150 106" stroke="#36E8A6" stroke-width="9" stroke-linecap="round" stroke-linejoin="round"/>
  <path d="M150 106V128M150 106H128" stroke="#36E8A6" stroke-width="9" stroke-linecap="round" stroke-linejoin="round"/>
  <circle cx="158" cy="148" r="13" fill="#36E8A6"/>
  <text x="226" y="112" fill="url(#word)" font-family="Inter, Segoe UI, Arial, sans-serif" font-size="58" font-weight="850">GlobexoMart</text>
  <text x="230" y="154" fill="#A9BDD4" font-family="Inter, Segoe UI, Arial, sans-serif" font-size="22" font-weight="650" letter-spacing="2">LEARN • EARN • GROW</text>
  <text x="230" y="190" fill="#7DF9FF" fill-opacity="0.9" font-family="Inter, Segoe UI, Arial, sans-serif" font-size="18" font-weight="550">Digital methods for stronger financial growth</text>
</svg>
