<svg width="1200" height="360" viewBox="0 0 1200 360" fill="none" xmlns="http://www.w3.org/2000/svg">
  <defs>
    <linearGradient id="markGrad" x1="78" y1="62" x2="318" y2="298" gradientUnits="userSpaceOnUse">
      <stop stop-color="#7DF9FF"/>
      <stop offset="0.48" stop-color="#2F6BFF"/>
      <stop offset="1" stop-color="#B46DFF"/>
    </linearGradient>
    <linearGradient id="earnGrad" x1="168" y1="248" x2="292" y2="104" gradientUnits="userSpaceOnUse">
      <stop stop-color="#36E8A6"/>
      <stop offset="1" stop-color="#7DF9FF"/>
    </linearGradient>
    <linearGradient id="wordGrad" x1="392" y1="100" x2="948" y2="225" gradientUnits="userSpaceOnUse">
      <stop stop-color="#FFFFFF"/>
      <stop offset="0.48" stop-color="#7DF9FF"/>
      <stop offset="1" stop-color="#D7DEFF"/>
    </linearGradient>
    <filter id="glow" x="0" y="0" width="380" height="360" filterUnits="userSpaceOnUse" color-interpolation-filters="sRGB">
      <feGaussianBlur stdDeviation="18" result="blur"/>
      <feColorMatrix in="blur" type="matrix" values="0 0 0 0 0.141 0 0 0 0 0.776 0 0 0 0 1 0 0 0 0.36 0"/>
      <feBlend in="SourceGraphic"/>
    </filter>
  </defs>
  <rect width="1200" height="360" rx="48" fill="#030817"/>
  <path d="M42 318C212 306 312 206 338 40" stroke="#24C6FF" stroke-opacity="0.13" stroke-width="2"/>
  <path d="M910 54C1016 64 1108 136 1162 246" stroke="#7DF9FF" stroke-opacity="0.1" stroke-width="2"/>
  <g filter="url(#glow)">
    <rect x="76" y="58" width="244" height="244" rx="58" fill="url(#markGrad)"/>
    <path d="M126 128C154 118 181 122 198 141V245C179 226 153 221 126 232V128Z" fill="white" fill-opacity="0.92"/>
    <path d="M198 141C216 122 244 118 271 128V232C244 221 218 226 198 245V141Z" fill="white" fill-opacity="0.72"/>
    <path d="M124 247C154 235 180 240 198 260C216 240 244 235 274 247" stroke="white" stroke-width="10" stroke-linecap="round" stroke-linejoin="round"/>
    <path d="M150 206L179 177L204 198L254 147" stroke="url(#earnGrad)" stroke-width="16" stroke-linecap="round" stroke-linejoin="round"/>
    <path d="M254 147V184M254 147H217" stroke="url(#earnGrad)" stroke-width="16" stroke-linecap="round" stroke-linejoin="round"/>
    <circle cx="268" cy="220" r="24" fill="#36E8A6"/>
    <path d="M268 204V236M256 212H274C283 212 286 224 277 227L259 233" stroke="#030817" stroke-width="7" stroke-linecap="round" stroke-linejoin="round"/>
  </g>
  <text x="386" y="166" fill="url(#wordGrad)" font-family="Inter, Segoe UI, Arial, sans-serif" font-size="78" font-weight="850">GlobexoMart</text>
  <text x="392" y="224" fill="#A9BDD4" font-family="Inter, Segoe UI, Arial, sans-serif" font-size="30" font-weight="650" letter-spacing="2">LEARN • EARN • GROW</text>
  <text x="392" y="270" fill="#7DF9FF" fill-opacity="0.9" font-family="Inter, Segoe UI, Arial, sans-serif" font-size="22" font-weight="550">Learn digital methods first. Build stronger income next.</text>
</svg>
